<?xml version="1.0" encoding="utf-8"?>
<!-- Generator: Adobe Illustrator 15.0.0, SVG Export Plug-In . SVG Version: 6.00 Build 0)  -->
<!DOCTYPE svg PUBLIC "-//W3C//DTD SVG 1.1//EN" "http://www.w3.org/Graphics/SVG/1.1/DTD/svg11.dtd">
<svg version="1.1" id="图层_1" xmlns="http://www.w3.org/2000/svg" xmlns:xlink="http://www.w3.org/1999/xlink" x="0px" y="0px"
	 width="526.801px" height="696.96px" viewBox="0 0 526.801 696.96" enable-background="new 0 0 526.801 696.96"
	 xml:space="preserve">
<g>
	<defs>
		<rect id="SVGID_1_" width="526.8" height="696.96"/>
	</defs>
	<clipPath id="SVGID_2_">
		<use xlink:href="#SVGID_1_"  overflow="visible"/>
	</clipPath>
	<path clip-path="url(#SVGID_2_)" fill="#FFFFFF" d="M350,161.922c-14.398-0.961-26.398,10.398-26.398,24.558
		c0,13.602,11.039,24.641,24.637,24.641c14.16,0,25.602-12.082,24.563-26.481C372,172.558,362.16,162.719,350,161.922
		 M366.398,235.68c-16.078,0-19.918,17.199-19.918,23.761v0.078c0,28.641-15.121,55.68-39.52,70.719
		c-13.039,8-28.082,12.242-43.359,12.242c-18.883,0-37.364-6.558-52.082-18.398c-19.598-15.844-30.879-39.363-30.879-64.563
		c0-9.359,1.597-18.64,4.718-27.437c11.602-33.043,42.961-55.363,77.922-55.442h0.16c2.797,0,5.598,0.161,8.398,0.399
		c10.082,1.043,19.602-4.559,23.441-13.918l0.48-1.121c5.52-13.762-3.523-28.961-18.16-30.719
		c-5.121-0.641-10.32-0.961-15.523-0.961c-39.918,0-77.039,18.078-101.598,49.52c-17.679,22.64-27.441,50.879-27.441,79.601
		c0,26.321,7.922,51.68,22.883,73.36C180,367.68,219.68,388.479,262.078,388.479c13.043,0,26-2,38.563-5.922
		c26.398-8.237,49.039-24.397,65.438-46.718c16.402-22.321,25.043-48.719,25.043-76.399v-0.32
		C390.961,257.762,391.121,235.68,366.398,235.68 M454.961,84.32C408.961,34.64,346.801,4.961,280,0.719
		c-3.281-0.239-6.641-0.399-10-0.481c-2.238-0.078-4.559-0.078-6.801-0.078c-2.238,0-4.398,0-6.558,0.078
		c-3.36,0.082-6.641,0.242-10,0.481c-66.801,4.242-128.879,34-174.961,83.601C25.441,134.238,0,199.441,0,268v2.719
		c0.559,40.242,12.961,83.363,37.039,128c19.359,36,46.32,57.203,80.082,94.641c6.957,7.68,14.16,15.359,21.438,22.879
		c52.882,54.241,102.32,90.723,111.761,97.523c3.84,2.796,8.399,4.238,13.122,4.238c1.277,0,2.559-0.078,3.758-0.32
		c5.922-1.04,11.199-4.48,14.641-9.359c3.441-4.961,4.879-11.199,3.84-17.199c-1.039-6.082-4.32-11.359-9.281-14.883
		c-4.398-3.199-44.238-32.398-90.32-77.277c-8.078-7.922-15.918-15.84-23.277-23.602c-53.68-56.559-117.762-125.277-117.762-207.277
		c0-79.121,41.84-152.801,109.199-192.32C186.32,56.961,222.879,46.64,259.922,46h6.879c1.121,0,2.32,0.082,3.438,0.082
		c35.84,1.199,71.203,11.437,102.242,29.68c67.359,39.519,109.199,113.199,109.199,192.32c0,82-64,150.637-117.758,207.277
		c-7.441,7.84-15.281,15.84-23.363,23.602c-7.52,7.359-15.438,14.801-23.598,22.238l-0.242,0.082l-1.199,1.198
		c-6.961,7.121-10.16,20.321-0.801,32.72l0.402,0.48l0.48,0.48l0.477,0.397c4.883,3.524,10.242,5.364,15.523,5.364
		c4.477,0,8.797-1.282,12.477-3.762l0.801-0.398l1.043-1.043c0.477-0.398,0.957-0.797,1.359-1.2
		C361.52,542.64,375.199,529.441,388,516.32c7.441-7.602,14.641-15.359,21.441-22.879c33.758-37.441,60.719-58.641,80.078-94.641
		c24-44.641,36.48-87.68,37.039-128v-2.719C526.641,199.441,501.199,134.238,454.961,84.32 M493.039,556.479
		c-19.918-12.479-40.719-20.081-75.117-28.081c-1.844-0.398-3.684-0.637-5.441-0.637c-13.281,0-24,10.796-24,24
		c0,11.199,8,21.117,18.961,23.52c56.078,12.237,63.039,22,63.039,27.68c0,5.597-14.641,18.398-69.602,30.558
		c-42.238,9.36-94.879,15.121-137.52,15.121S168,642.801,125.84,633.519c-54.879-12.159-69.602-24.961-69.602-30.558
		c0-5.68,6.16-17.039,62.242-29.281c10.961-2.398,18.961-12.238,18.961-23.52c0-13.281-10.8-24-24-24
		c-1.839,0-3.679,0.238-5.441,0.641c-34.398,8-54.32,17.199-74.32,29.679c-22,13.759-33.602,29.841-33.602,46.481
		c0,26.16,28.32,50.078,79.684,67.359C128.879,686.879,194.16,696,263.441,696c69.277,0,134.48-9.121,183.68-25.68
		c51.359-17.281,79.68-41.199,79.68-67.359C526.641,586.32,515.039,570.238,493.039,556.479"/>
</g>
</svg>
