<?xml version="1.0" encoding="utf-8"?>
<!-- Generator: Adobe Illustrator 15.0.0, SVG Export Plug-In . SVG Version: 6.00 Build 0)  -->
<!DOCTYPE svg PUBLIC "-//W3C//DTD SVG 1.1//EN" "http://www.w3.org/Graphics/SVG/1.1/DTD/svg11.dtd">
<svg version="1.1" id="图层_1" xmlns="http://www.w3.org/2000/svg" xmlns:xlink="http://www.w3.org/1999/xlink" x="0px" y="0px"
	 width="716.16px" height="716.078px" viewBox="0 0 716.16 716.078" enable-background="new 0 0 716.16 716.078"
	 xml:space="preserve">
<g>
	<defs>
		<rect id="SVGID_1_" width="716.16" height="716.078"/>
	</defs>
	<clipPath id="SVGID_2_">
		<use xlink:href="#SVGID_1_"  overflow="visible"/>
	</clipPath>
	<g clip-path="url(#SVGID_2_)">
		<defs>
			<rect id="SVGID_3_" width="716.16" height="716.078"/>
		</defs>
		<clipPath id="SVGID_4_">
			<use xlink:href="#SVGID_3_"  overflow="visible"/>
		</clipPath>
		<g opacity="0.2" clip-path="url(#SVGID_4_)">
			<g>
				<defs>
					<rect id="SVGID_5_" x="94.961" y="37.68" width="583.918" height="640.558"/>
				</defs>
				<clipPath id="SVGID_6_">
					<use xlink:href="#SVGID_5_"  overflow="visible"/>
				</clipPath>
				<path clip-path="url(#SVGID_6_)" fill="#FFFFFF" d="M678.879,358c0-176.641-143.68-320.32-320.32-320.32
					c-15.277,0-30.239,1.039-44.957,3.121C185.762,89.441,94.961,213.039,94.961,357.922c0,144.878,90.879,268.558,218.719,317.199
					c14.8,2.078,29.761,3.117,44.878,3.117C535.199,678.238,678.879,534.56,678.879,358"/>
			</g>
		</g>
		<path clip-path="url(#SVGID_4_)" fill="#FFFFFF" d="M305.359,485.121c-4.8,0-9.679-1.84-13.359-5.519
			c-7.359-7.364-7.359-19.364,0-26.724l216.48-216.481c7.359-7.359,19.359-7.359,26.719,0c7.359,7.364,7.359,19.364,0,26.723
			l-216.48,216.481C315.039,483.281,310.238,485.121,305.359,485.121"/>
		<path clip-path="url(#SVGID_4_)" fill="#FFFFFF" d="M304.078,483.762c-4.797,0-9.68-1.84-13.359-5.523L181.922,369.441
			c-7.363-7.363-7.363-19.363,0-26.722c7.359-7.36,19.359-7.36,26.719,0l108.8,108.801c7.36,7.358,7.36,19.358,0,26.718
			C313.762,481.922,308.879,483.762,304.078,483.762"/>
		<path clip-path="url(#SVGID_4_)" fill="#FFFFFF" d="M96.48,592.879c-5.441,0-10.8-2.319-14.558-6.879
			c-10.883-13.199-20.883-27.199-29.762-41.762c-5.441-8.879-2.64-20.559,6.32-26c8.879-5.438,20.559-2.636,26,6.321
			c7.918,12.961,16.879,25.519,26.641,37.362c6.641,8.078,5.52,19.918-2.562,26.559C104.961,591.441,100.719,592.879,96.48,592.879"
			/>
		<path clip-path="url(#SVGID_4_)" fill="#FFFFFF" d="M358,716.078c-74.398,0-145.762-22.637-206.398-65.437
			c-8.563-6-10.563-17.841-4.563-26.321c6.082-8.559,17.84-10.559,26.32-4.559c54.161,38.238,118,58.477,184.563,58.477
			c176.637,0,320.316-143.679,320.316-320.316C678.238,181.281,534.641,37.68,358,37.68C181.359,37.68,37.762,181.359,37.762,358
			c0,30.641,4.316,60.961,12.797,90.078c2.961,10-2.797,20.481-12.797,23.442c-10.082,2.878-20.481-2.802-23.442-12.802
			C4.801,426.16,0,392.32,0,358.078C0,160.641,160.641,0,358.078,0C555.52,0,716.16,160.641,716.16,358.078
			C716.16,555.521,555.441,716.078,358,716.078"/>
	</g>
</g>
</svg>
