<?xml version="1.0" encoding="utf-8"?>
<!-- Generator: Adobe Illustrator 15.0.0, SVG Export Plug-In . SVG Version: 6.00 Build 0)  -->
<!DOCTYPE svg PUBLIC "-//W3C//DTD SVG 1.1//EN" "http://www.w3.org/Graphics/SVG/1.1/DTD/svg11.dtd">
<svg version="1.1" id="图层_1" xmlns="http://www.w3.org/2000/svg" xmlns:xlink="http://www.w3.org/1999/xlink" x="0px" y="0px"
	 width="465.84px" height="484.8px" viewBox="0 0 465.84 484.8" enable-background="new 0 0 465.84 484.8" xml:space="preserve">
<g>
	<defs>
		<rect id="SVGID_1_" width="465.84" height="484.8"/>
	</defs>
	<clipPath id="SVGID_2_">
		<use xlink:href="#SVGID_1_"  overflow="visible"/>
	</clipPath>
	<path clip-path="url(#SVGID_2_)" fill="#FFFFFF" d="M315.457,483.838c-15.219,0-30.531-3.617-44.52-10.835
		c-81.652-42.137-147.23-93.646-194.915-153.086c-35.488-44.246-60.585-92.039-74.585-142.055
		c-2.442-8.715,2.644-17.754,11.355-20.191c8.711-2.442,17.754,2.644,20.191,11.359c21.547,76.949,82.922,187.098,252.981,274.859
		c17.922,9.25,39.023,9.61,56.449,0.965c0.926-0.457,1.844-0.93,2.758-1.41c15.473-8.129,19.555-23.19,20.613-31.444
		c2.195-17.153-4.109-34.793-16.453-46.036c-7.914-7.203-10.523-8.977-19.191-14.063c-13.117-7.69-32.332-17.438-47.77-13.25
		c-19.547,5.298-39.984,3.703-59.101-4.612c-24.165-10.513-46.731-31.715-67.075-63.013c-2.007-2.797-13.062-18.555-22.449-39.156
		c-14.531-31.907-17.875-59.129-9.941-80.903c4.91-13.468,4.531-27.25-1.063-38.8l-9.746-20.125
		c-7.039-14.536-20.82-24.442-36.863-26.493c-16.16-2.066-31.473,3.836-42.004,16.2c-0.281,0.332-0.555,0.66-0.828,0.988
		c-1.121,1.355-2.156,2.777-3.102,4.262c-4.859,7.629-14.984,9.879-22.617,5.015c-7.629-4.859-9.875-14.988-5.016-22.617
		c1.668-2.621,3.496-5.133,5.473-7.527c0.371-0.449,0.758-0.91,1.149-1.367C26.766,39.866,53.344,29.6,80.293,33.049
		c27.059,3.461,50.309,20.176,62.191,44.711l9.746,20.125c9.493,19.598,10.329,42.434,2.36,64.301
		c-10.176,27.918,17.754,75.445,28.34,89.895c0.183,0.254,0.363,0.511,0.531,0.772c28.359,43.771,59.598,62.504,90.34,54.172
		c27.031-7.327,53.168,5.027,72.918,16.613c10.609,6.224,14.875,9.176,24.672,18.099c20.121,18.319,30.426,46.84,26.895,74.422
		c-3.176,24.793-16.98,45.308-37.867,56.284c-1.145,0.603-2.293,1.188-3.449,1.763C344.016,480.635,329.777,483.838,315.457,483.838
		 M302.906,239.671c-7.648,0-14.488-5.387-16.047-13.172c-9.863-49.25-45.695-69.395-46.059-69.594
		c-7.934-4.348-10.84-14.305-6.492-22.238c4.348-7.934,14.305-10.84,22.238-6.493c2.02,1.106,49.613,27.84,62.438,91.895
		c1.777,8.871-3.977,17.504-12.848,19.277C305.074,239.561,303.988,239.667,302.906,239.671 M379.469,248.018
		c-8.305,0-15.422-6.289-16.277-14.73c-4.5-44.414-22.195-81.364-52.602-109.817c-23.035-21.554-45.191-30.008-45.414-30.09
		c-8.496-3.113-12.832-12.511-9.723-21.007c3.113-8.496,12.547-12.848,21.043-9.739c1.113,0.407,27.547,10.262,55.289,35.805
		c25.496,23.477,57.301,65.359,64.004,131.543c0.914,9.004-5.645,17.039-14.648,17.949
		C380.582,247.991,380.023,248.018,379.469,248.018"/>
	<path clip-path="url(#SVGID_2_)" fill="#FFFFFF" d="M449.352,257.006c-9.027,0-16.355-7.3-16.383-16.332
		c-0.195-66.14-24.223-121.086-71.41-163.32c-35.836-32.074-72.367-44.551-72.73-44.672c-8.566-2.871-13.207-12.14-10.355-20.711
		c2.852-8.57,12.086-13.222,20.664-10.386c1.711,0.562,42.379,14.257,83.207,50.406c24.078,21.32,43.309,46.101,57.156,73.656
		c17.285,34.395,26.109,73.059,26.23,114.93c0.027,9.047-7.285,16.402-16.332,16.429H449.352z"/>
</g>
</svg>
