<?xml version="1.0" encoding="utf-8"?>
<!-- Generator: Adobe Illustrator 15.0.0, SVG Export Plug-In . SVG Version: 6.00 Build 0)  -->
<!DOCTYPE svg PUBLIC "-//W3C//DTD SVG 1.1//EN" "http://www.w3.org/Graphics/SVG/1.1/DTD/svg11.dtd">
<svg version="1.1" id="图层_1" xmlns="http://www.w3.org/2000/svg" xmlns:xlink="http://www.w3.org/1999/xlink" x="0px" y="0px"
	 width="216.096px" height="61.305px" viewBox="0 0 216.096 61.305" enable-background="new 0 0 216.096 61.305"
	 xml:space="preserve">
<g>
	<defs>
		<rect id="SVGID_1_" y="0" width="216.096" height="61.305"/>
	</defs>
	<clipPath id="SVGID_2_">
		<use xlink:href="#SVGID_1_"  overflow="visible"/>
	</clipPath>
	<path clip-path="url(#SVGID_2_)" fill="#FFFFFF" d="M19.535,8.642H2.66C1.191,8.642,0,7.45,0,5.981c0-1.469,1.191-2.661,2.66-2.661
		h16.875c1.469,0,2.66,1.192,2.66,2.661C22.195,7.45,21.004,8.642,19.535,8.642"/>
	<path clip-path="url(#SVGID_2_)" fill="#FFFFFF" d="M47.918,17.419h-9.527c-1.469,0-2.661-1.191-2.661-2.66
		c0-1.469,1.192-2.66,2.661-2.66h9.527c1.469,0,2.658,1.191,2.658,2.66C50.576,16.228,49.387,17.419,47.918,17.419"/>
	<path clip-path="url(#SVGID_2_)" fill="#FFFFFF" d="M47.918,61.305H24.393c-1.469,0-2.661-1.191-2.661-2.66
		c0-1.468,1.192-2.659,2.661-2.659h23.525c1.469,0,2.658,1.191,2.658,2.659C50.576,60.113,49.387,61.305,47.918,61.305"/>
	<path clip-path="url(#SVGID_2_)" fill="#FFFFFF" d="M24.818,34.974H13.771c-1.469,0-2.66-1.19-2.66-2.659
		c0-1.47,1.191-2.66,2.66-2.66h11.047c1.471,0,2.66,1.19,2.66,2.66C27.479,33.783,26.29,34.974,24.818,34.974"/>
	<path clip-path="url(#SVGID_2_)" fill="#FFFFFF" d="M36.137,8.642h-8.264c-1.468,0-2.66-1.192-2.66-2.66
		c0-1.469,1.192-2.661,2.66-2.661h8.264c1.469,0,2.66,1.192,2.66,2.661C38.797,7.45,37.606,8.642,36.137,8.642"/>
	<path clip-path="url(#SVGID_2_)" fill="#FFFFFF" d="M47.918,8.642h-3.434c-1.468,0-2.66-1.192-2.66-2.66
		c0-1.469,1.192-2.661,2.66-2.661h3.434c1.469,0,2.658,1.192,2.658,2.661C50.576,7.45,49.387,8.642,47.918,8.642"/>
	<path clip-path="url(#SVGID_2_)" fill="#FFFFFF" d="M29.951,17.419H14.263c-1.468,0-2.66-1.191-2.66-2.66
		c0-1.469,1.192-2.66,2.66-2.66h15.688c1.469,0,2.658,1.191,2.658,2.66C32.609,16.228,31.42,17.419,29.951,17.419"/>
	<path clip-path="url(#SVGID_2_)" fill="#FFFFFF" d="M5.926,17.419H2.66c-1.468,0-2.66-1.191-2.66-2.66
		c0-1.469,1.192-2.66,2.66-2.66h3.266c1.469,0,2.66,1.191,2.66,2.66C8.586,16.228,7.395,17.419,5.926,17.419"/>
	<path clip-path="url(#SVGID_2_)" fill="#FFFFFF" d="M42.035,26.197H28.328c-1.471,0-2.66-1.192-2.66-2.66
		c0-1.471,1.189-2.659,2.66-2.659h13.707c1.469,0,2.66,1.188,2.66,2.659C44.695,25.005,43.504,26.197,42.035,26.197"/>
	<path clip-path="url(#SVGID_2_)" fill="#FFFFFF" d="M19.988,26.197h-1.936c-1.468,0-2.66-1.192-2.66-2.66
		c0-1.471,1.192-2.659,2.66-2.659h1.936c1.469,0,2.66,1.188,2.66,2.659C22.648,25.005,21.458,26.197,19.988,26.197"/>
	<path clip-path="url(#SVGID_2_)" fill="#FFFFFF" d="M16.053,61.305H2.66c-1.468,0-2.66-1.191-2.66-2.66
		c0-1.468,1.192-2.659,2.66-2.659h13.393c1.469,0,2.66,1.191,2.66,2.659C18.713,60.113,17.522,61.305,16.053,61.305"/>
	<path clip-path="url(#SVGID_2_)" fill="#FFFFFF" d="M35.094,34.974h-1.936c-1.468,0-2.66-1.19-2.66-2.659
		c0-1.47,1.192-2.66,2.66-2.66h1.936c1.469,0,2.66,1.19,2.66,2.66C37.754,33.783,36.563,34.974,35.094,34.974"/>
	<path clip-path="url(#SVGID_2_)" fill="#FFFFFF" d="M16.973,43.751H7.256c-1.469,0-2.66-1.19-2.66-2.66
		c0-1.469,1.191-2.659,2.66-2.659h9.717c1.471,0,2.66,1.19,2.66,2.659C19.633,42.561,18.444,43.751,16.973,43.751"/>
	<path clip-path="url(#SVGID_2_)" fill="#FFFFFF" d="M31.238,43.751h-5.926c-1.469,0-2.66-1.19-2.66-2.66
		c0-1.469,1.191-2.659,2.66-2.659h5.926c1.469,0,2.66,1.19,2.66,2.659C33.898,42.561,32.708,43.751,31.238,43.751"/>
	<path clip-path="url(#SVGID_2_)" fill="#FFFFFF" d="M47.918,52.527H31.707c-1.469,0-2.66-1.19-2.66-2.659
		c0-1.47,1.191-2.66,2.66-2.66h16.211c1.469,0,2.658,1.19,2.658,2.66C50.576,51.337,49.387,52.527,47.918,52.527"/>
	<path clip-path="url(#SVGID_2_)" fill="#FFFFFF" d="M23.367,52.527h-7.773c-1.469,0-2.661-1.19-2.661-2.659
		c0-1.47,1.192-2.66,2.661-2.66h7.773c1.471,0,2.66,1.19,2.66,2.66C26.027,51.337,24.838,52.527,23.367,52.527"/>
	<path clip-path="url(#SVGID_2_)" fill="#FFFFFF" d="M7.256,52.527H2.66c-1.468,0-2.66-1.19-2.66-2.659c0-1.47,1.192-2.66,2.66-2.66
		h4.596c1.469,0,2.66,1.19,2.66,2.66C9.916,51.337,8.725,52.527,7.256,52.527"/>
	<path clip-path="url(#SVGID_2_)" fill="#FFFFFF" d="M85.142,1.73v1.433h8.545c0.92,0,1.688,0.819,1.688,1.689v0.101
		c0,0.921-0.768,1.688-1.688,1.688h-8.646c-0.053,1.28-0.155,2.508-0.254,3.634h7.416c0.92,0,1.687,0.766,1.687,1.687v0.102
		c0,0.92-0.767,1.688-1.687,1.688h-7.932c-0.304,1.33-0.662,2.558-1.072,3.684h10.488c0.92,0,1.688,0.715,1.688,1.687v0.053
		c0,0.919-0.768,1.636-1.688,1.636H81.664c-0.766,1.329-1.738,2.559-2.813,3.685c-1.381,1.38-3.019,2.761-4.963,4.141
		c-0.357,0.256-0.869,0.359-1.33,0.256c-0.408-0.1-0.767-0.307-1.074-0.766l-0.051-0.052c-0.461-0.765-0.256-1.74,0.461-2.25
		c1.688-1.176,3.071-2.406,4.246-3.583l1.227-1.431h-4.143c-0.922,0-1.689-0.717-1.689-1.636v-0.053
		c0-0.972,0.767-1.687,1.689-1.687h6.19l0.154-0.36c0.408-0.971,0.768-2.095,1.072-3.324h-5.933c-0.92,0-1.688-0.768-1.688-1.688
		v-0.102c0-0.921,0.768-1.687,1.688-1.687h6.547l0.308-3.634h-8.338c-0.922,0-1.689-0.767-1.689-1.688V4.852
		c0-0.87,0.767-1.689,1.689-1.689h8.44V1.73H85.142z M72.611,35.749c0-1.534,0.613-2.863,1.637-3.888
		c1.021-1.024,2.404-1.585,3.836-1.585h14.017v-2.917c0-0.971,0.766-1.687,1.688-1.687h0.101c0.922,0,1.69,0.716,1.69,1.687v2.917
		h14.068c2.252,0,4.092,1.329,5.012,3.375c0.256,0.614,0.408,1.333,0.408,2.098v3.889c0,1.434-0.561,2.764-1.686,3.838
		c-0.971,1.022-2.404,1.637-3.785,1.637h-0.566c-0.867-0.053-1.633-0.819-1.633-1.691v-0.1c0-0.92,0.766-1.688,1.738-1.688h0.461
		c0.512,0,1.021-0.152,1.381-0.612c0.459-0.359,0.615-0.819,0.615-1.383v-3.889c0-0.613-0.156-1.074-0.564-1.483
		c-0.357-0.408-0.818-0.614-1.381-0.614H95.58v11.307c0,0.921-0.768,1.689-1.69,1.689h-0.101c-0.922,0-1.688-0.769-1.688-1.689
		V33.651H78.084c-0.563,0-1.024,0.206-1.432,0.614c-0.357,0.409-0.564,0.87-0.564,1.483v7.212c0,0.922-0.768,1.69-1.688,1.69h-0.101
		c-0.872,0-1.688-0.769-1.688-1.69V35.749z M110.363,22.296c0.563,0,1.074-0.256,1.383-0.614c0.357-0.36,0.563-0.87,0.563-1.433
		v-3.12c0-0.563-0.205-1.024-0.563-1.434c-0.256-0.356-0.668-0.511-1.127-0.562h-0.256h-2.557h-0.205h-0.154
		c-0.201-0.051-0.408-0.152-0.613-0.257c0-0.05-0.051-0.05-0.104-0.1l-0.101-0.102l-0.153-0.153
		c-0.052-0.051-0.101-0.104-0.101-0.155l-0.104-0.152c-0.101-0.207-0.152-0.462-0.152-0.771v-0.101c0-0.151,0-0.358,0.051-0.51
		l0.101-0.256c0.153-0.257,0.358-0.46,0.563-0.614c0.049,0,0.049-0.053,0.049-0.053l0.363-0.152c0.201-0.051,0.355-0.103,0.56-0.103
		h2.557c0.563,0,1.074-0.204,1.383-0.562c0.357-0.409,0.563-0.87,0.563-1.433V6.028c0-0.564-0.205-1.075-0.563-1.433
		c-0.309-0.41-0.82-0.563-1.383-0.563h-7.213c-0.562,0-1.021,0.153-1.381,0.563c-0.41,0.358-0.613,0.869-0.613,1.433v20.668
		c0,0.871-0.768,1.688-1.688,1.688h-0.103c-0.869,0-1.688-0.817-1.688-1.688V6.028c0-1.433,0.614-2.815,1.637-3.836
		c1.024-1.024,2.403-1.639,3.836-1.639h7.213c2.25,0,4.094,1.331,5.016,3.378c0.254,0.664,0.408,1.33,0.408,2.097v3.631
		c0,0.717-0.154,1.433-0.408,2.098c-0.311,0.615-0.668,1.177-1.074,1.638c0.406,0.46,0.764,1.022,1.074,1.636
		c0.254,0.664,0.408,1.331,0.408,2.098v3.12c0,0.716-0.154,1.433-0.408,2.098c-0.922,1.994-2.766,3.377-5.016,3.377h-3.836
		c-0.92,0-1.689-0.768-1.689-1.688v-0.053c0-0.921,0.769-1.687,1.689-1.687H110.363z"/>
	<path clip-path="url(#SVGID_2_)" fill="#FFFFFF" d="M156.148,43.415l3.422-13.242h-31.408c-0.563,0-1.025-0.204-1.332-0.666
		c-0.355-0.459-0.459-0.969-0.307-1.481l2.404-8.289h-5.115c-0.92,0-1.687-0.766-1.687-1.687v-0.104c0-0.87,0.767-1.687,1.687-1.687
		h6.139l2.25-7.573h-8.389c-0.92,0-1.687-0.765-1.687-1.688V6.896c0-0.92,0.767-1.687,1.687-1.687h9.412l1.127-3.786
		c0.309-0.87,1.176-1.381,2.047-1.125h0.152c0.922,0.255,1.484,1.228,1.229,2.097l-0.819,2.814h28.138
		c0.92,0,1.686,0.767,1.686,1.687v0.102c0,0.923-0.766,1.688-1.686,1.688h-29.162l-2.25,7.573h31.412
		c0.92,0,1.686,0.817,1.686,1.687v0.104c0,0.921-0.766,1.687-1.686,1.687h-32.434l-2.047,7.01h31.258
		c0.512,0,0.971,0.203,1.277,0.663c0.359,0.41,0.461,0.921,0.359,1.435l-3.836,14.826"/>
	<path clip-path="url(#SVGID_2_)" fill="#FFFFFF" d="M209.648,42.911c0.871,0,1.535-0.256,2.098-0.819
		c0.563-0.611,0.818-1.278,0.818-2.149V7.972c0-0.87-0.256-1.534-0.818-2.098c-0.563-0.563-1.227-0.868-2.098-0.868h-28.543
		c-0.869,0-1.537,0.305-2.098,0.868c-0.564,0.564-0.818,1.228-0.818,2.098v36.834c0,0.92-0.77,1.687-1.689,1.687h-0.152
		c-0.922,0-1.689-0.767-1.689-1.687V7.972c0-0.921,0.205-1.74,0.512-2.508c1.021-2.405,3.224-3.99,5.936-3.99h28.543
		c2.713,0,4.912,1.585,5.936,3.99c0.307,0.768,0.512,1.587,0.512,2.508v31.971c0,0.922-0.205,1.741-0.512,2.509
		c-0.664,1.586-1.842,2.71-3.426,3.428c-0.77,0.307-1.588,0.512-2.51,0.512h-1.74c-0.971,0-1.686-0.768-1.686-1.689V44.6
		c0-0.92,0.715-1.688,1.686-1.688H209.648z M190.467,24.341l4.041,7.317c0.408,0.817,0.102,1.84-0.666,2.25
		c-0.461,0.307-0.869,0.357-1.381,0.204c-0.461-0.102-0.768-0.356-1.023-0.817l-2.813-5.065c-1.637,3.274-3.529,6.445-5.73,9.413
		c-0.512,0.818-1.586,0.972-2.301,0.461l-0.104-0.053c-0.717-0.561-0.922-1.586-0.41-2.352c2.559-3.582,4.758-7.213,6.547-11.153
		l-6.033-11.103c-0.514-0.867-0.205-1.839,0.563-2.298c0.51-0.258,0.92-0.309,1.379-0.205c0.463,0.152,0.818,0.459,1.023,0.817
		l4.76,8.697c1.072-2.813,1.941-5.78,2.607-8.901c0.205-0.87,1.074-1.485,1.945-1.278c0.563,0.048,0.869,0.306,1.125,0.715
		c0.307,0.409,0.408,0.818,0.307,1.279C193.381,16.515,192.102,20.558,190.467,24.341 M205.914,25.007l5.066,10.64
		c0.408,0.818,0.051,1.844-0.768,2.199l-0.051,0.053c-0.871,0.409-1.842,0.053-2.254-0.817l-3.938-8.188
		c-1.586,3.069-3.428,5.984-5.424,8.799c-0.561,0.769-1.584,0.975-2.354,0.411l-0.05-0.053c-0.765-0.561-0.919-1.586-0.409-2.352
		c2.455-3.479,4.553-7.01,6.344-10.793L196.35,12.78c-0.41-0.818-0.104-1.84,0.766-2.199c0.412-0.258,0.871-0.258,1.33-0.154
		c0.463,0.205,0.768,0.46,0.975,0.919l4.449,9.364c1.125-2.917,1.996-5.934,2.711-9.157c0.203-0.87,1.074-1.485,1.943-1.278
		c0.512,0.048,0.871,0.306,1.125,0.715c0.309,0.409,0.359,0.818,0.258,1.279C208.984,16.769,207.602,21.018,205.914,25.007"/>
	<rect x="127.258" y="42.456" clip-path="url(#SVGID_2_)" fill="#FFFFFF" width="36.74" height="3.477"/>
	<path clip-path="url(#SVGID_2_)" fill="#FFFFFF" d="M128.994,44.194c0,0.961-0.779,1.738-1.736,1.738
		c-0.961,0-1.74-0.777-1.74-1.738c0-0.959,0.779-1.738,1.74-1.738C128.215,42.456,128.994,43.235,128.994,44.194"/>
	<path clip-path="url(#SVGID_2_)" fill="#FFFFFF" d="M165.74,44.194c0,0.961-0.781,1.738-1.742,1.738s-1.74-0.777-1.74-1.738
		c0-0.959,0.779-1.738,1.74-1.738S165.74,43.235,165.74,44.194"/>
	<path clip-path="url(#SVGID_2_)" fill="#FFFFFF" d="M81.664,1.739c0-0.96,0.781-1.739,1.74-1.739c0.961,0,1.739,0.779,1.739,1.739
		H81.664z"/>
	<path clip-path="url(#SVGID_2_)" fill="#FFFFFF" d="M95.141,54.202l-1.666,5.947H92.58l-1.197-4.285
		c-0.055-0.193-0.086-0.398-0.096-0.613h-0.015c-0.016,0.213-0.053,0.415-0.108,0.606l-1.21,4.292h-0.887l-1.723-5.947h0.848
		l1.213,4.492c0.054,0.202,0.086,0.405,0.097,0.61h0.022c0.013-0.153,0.055-0.357,0.127-0.61l1.287-4.492h0.756l1.228,4.526
		c0.041,0.149,0.074,0.338,0.1,0.569h0.015c0.012-0.167,0.049-0.362,0.112-0.584l1.166-4.512H95.141z"/>
	<path clip-path="url(#SVGID_2_)" fill="#FFFFFF" d="M106.758,54.202l-1.666,5.947h-0.895L103,55.864
		c-0.055-0.193-0.086-0.398-0.096-0.613h-0.015c-0.016,0.213-0.053,0.415-0.108,0.606l-1.21,4.292h-0.887l-1.723-5.947h0.848
		l1.213,4.492c0.054,0.202,0.086,0.405,0.097,0.61h0.022c0.013-0.153,0.055-0.357,0.127-0.61l1.287-4.492h0.756l1.228,4.526
		c0.041,0.149,0.074,0.338,0.1,0.569h0.015c0.012-0.167,0.049-0.362,0.112-0.584l1.166-4.512H106.758z"/>
	<path clip-path="url(#SVGID_2_)" fill="#FFFFFF" d="M118.377,54.202l-1.668,5.947h-0.895l-1.197-4.285
		c-0.053-0.193-0.086-0.398-0.095-0.613h-0.017c-0.016,0.213-0.051,0.415-0.107,0.606l-1.208,4.292h-0.888l-1.725-5.947h0.85
		l1.213,4.492c0.053,0.202,0.086,0.405,0.096,0.61h0.023c0.013-0.153,0.056-0.357,0.127-0.61l1.285-4.492h0.756l1.229,4.526
		c0.041,0.149,0.075,0.338,0.1,0.569h0.017c0.013-0.167,0.05-0.362,0.11-0.584l1.168-4.512H118.377z"/>
	<path clip-path="url(#SVGID_2_)" fill="#FFFFFF" d="M122.016,59.754c0-0.138,0.047-0.254,0.141-0.349
		c0.096-0.096,0.214-0.143,0.354-0.143c0.145,0,0.264,0.048,0.358,0.145c0.093,0.095,0.142,0.211,0.142,0.347
		c0,0.133-0.049,0.247-0.142,0.344c-0.095,0.096-0.216,0.145-0.362,0.145c-0.141,0-0.258-0.049-0.352-0.145
		C122.063,60.001,122.016,59.887,122.016,59.754"/>
	<path clip-path="url(#SVGID_2_)" fill="#FFFFFF" d="M127.836,60.149v-5.947h1.747c0.522,0,0.938,0.125,1.251,0.375
		c0.313,0.249,0.469,0.58,0.469,0.992c0,0.328-0.094,0.617-0.279,0.868s-0.439,0.428-0.766,0.533v0.016
		c0.404,0.046,0.729,0.199,0.971,0.459c0.24,0.259,0.361,0.589,0.361,0.988c0,0.512-0.184,0.926-0.55,1.241
		c-0.368,0.316-0.839,0.475-1.411,0.475H127.836z M128.604,54.874v1.862h0.699c0.371,0,0.662-0.09,0.873-0.271
		s0.316-0.431,0.316-0.751c0-0.56-0.373-0.841-1.12-0.841H128.604z M128.604,57.404v2.073h0.922c0.4,0,0.711-0.093,0.931-0.278
		c0.218-0.186,0.327-0.443,0.327-0.774c0-0.681-0.461-1.021-1.385-1.021H128.604z"/>
	<polygon clip-path="url(#SVGID_2_)" fill="#FFFFFF" points="140.313,54.433 136.885,59.47 140.236,59.47 140.236,60.149 
		135.76,60.149 135.76,59.888 139.164,54.886 136.029,54.886 136.029,54.203 140.313,54.203 	"/>
	<path clip-path="url(#SVGID_2_)" fill="#FFFFFF" d="M152.012,54.202l-1.668,5.947h-0.895l-1.197-4.285
		c-0.053-0.193-0.086-0.398-0.095-0.613h-0.017c-0.016,0.213-0.051,0.415-0.107,0.606l-1.208,4.292h-0.888l-1.725-5.947h0.85
		l1.213,4.492c0.053,0.202,0.086,0.405,0.096,0.61h0.023c0.013-0.153,0.056-0.357,0.127-0.61l1.285-4.492h0.756l1.229,4.526
		c0.041,0.149,0.075,0.338,0.1,0.569h0.017c0.013-0.167,0.05-0.362,0.11-0.584l1.168-4.512H152.012z"/>
	<polygon clip-path="url(#SVGID_2_)" fill="#FFFFFF" points="157.836,54.852 157.264,54.852 157.264,59.5 157.836,59.5 
		157.836,60.149 155.924,60.149 155.924,59.5 156.496,59.5 156.496,54.852 155.924,54.852 155.924,54.202 157.836,54.202 	"/>
	<path clip-path="url(#SVGID_2_)" fill="#FFFFFF" d="M163.191,57.927v2.223h-0.767v-5.947h1.688c0.644,0,1.141,0.155,1.494,0.465
		c0.356,0.311,0.533,0.752,0.533,1.328c0,0.584-0.209,1.057-0.623,1.419s-0.932,0.533-1.554,0.513H163.191z M163.191,54.878v2.372
		h0.711c0.467,0,0.824-0.104,1.066-0.315c0.245-0.211,0.365-0.515,0.365-0.908c0-0.766-0.452-1.148-1.359-1.148H163.191z"/>
	<path clip-path="url(#SVGID_2_)" fill="#FFFFFF" d="M169.188,59.754c0-0.138,0.047-0.254,0.143-0.349
		c0.094-0.096,0.213-0.143,0.354-0.143c0.143,0,0.262,0.048,0.357,0.145c0.094,0.095,0.141,0.211,0.141,0.347
		c0,0.133-0.047,0.247-0.141,0.344c-0.096,0.096-0.217,0.145-0.361,0.145c-0.141,0-0.258-0.049-0.352-0.145
		C169.234,60.001,169.188,59.887,169.188,59.754"/>
	<path clip-path="url(#SVGID_2_)" fill="#FFFFFF" d="M179.078,59.903c-0.437,0.23-0.986,0.346-1.646,0.346
		c-0.854,0-1.534-0.271-2.043-0.812c-0.511-0.542-0.765-1.258-0.765-2.148c0-0.957,0.287-1.728,0.859-2.312
		c0.574-0.583,1.301-0.875,2.186-0.875c0.566,0,1.037,0.081,1.408,0.242v0.802c-0.426-0.234-0.893-0.353-1.402-0.353
		c-0.661,0-1.201,0.221-1.618,0.662c-0.418,0.441-0.625,1.037-0.625,1.787c0,0.712,0.192,1.276,0.582,1.694
		c0.39,0.419,0.897,0.628,1.528,0.628c0.588,0,1.1-0.133,1.535-0.398V59.903z"/>
	<path clip-path="url(#SVGID_2_)" fill="#FFFFFF" d="M183.391,57.247c0-0.96,0.26-1.724,0.779-2.292s1.223-0.853,2.111-0.853
		c0.826,0,1.492,0.278,1.996,0.834c0.504,0.555,0.756,1.278,0.756,2.168c0,0.965-0.258,1.73-0.775,2.296
		c-0.516,0.566-1.206,0.849-2.072,0.849c-0.846,0-1.521-0.277-2.031-0.834C183.645,58.86,183.391,58.138,183.391,57.247
		 M184.197,57.186c0,0.719,0.184,1.296,0.551,1.729c0.367,0.435,0.846,0.65,1.438,0.65c0.635,0,1.133-0.208,1.494-0.624
		c0.363-0.415,0.545-0.997,0.545-1.744c0-0.768-0.178-1.36-0.533-1.777c-0.354-0.417-0.84-0.626-1.457-0.626
		c-0.605,0-1.098,0.221-1.473,0.66C184.385,55.895,184.197,56.472,184.197,57.186"/>
	<path clip-path="url(#SVGID_2_)" fill="#FFFFFF" d="M199.176,60.149V56.21c0-0.324,0.02-0.715,0.059-1.171h-0.02
		c-0.066,0.287-0.125,0.486-0.178,0.6l-1.961,4.511h-0.426l-1.959-4.477c-0.045-0.103-0.104-0.313-0.176-0.634h-0.023
		c0.025,0.277,0.039,0.679,0.039,1.206v3.904h-0.734v-5.947h1.041l1.754,4.077c0.133,0.313,0.223,0.556,0.266,0.73h0.027
		c0.133-0.366,0.227-0.614,0.279-0.745l1.785-4.063h0.99v5.947H199.176z"/>
</g>
</svg>
